<?xml version="1.0" encoding="UTF-8" standalone="no"?>
<!DOCTYPE svg PUBLIC "-//W3C//DTD SVG 1.1//EN"
 "http://www.w3.org/Graphics/SVG/1.1/DTD/svg11.dtd">
<!-- Generated by graphviz version 2.40.1 (20161225.0304)
 -->
<!-- Title: dependencies Pages: 1 -->
<svg width="504pt" height="211pt"
 viewBox="0.00 0.00 504.00 211.00" xmlns="http://www.w3.org/2000/svg" xmlns:xlink="http://www.w3.org/1999/xlink">
<g id="graph0" class="graph" transform="scale(1 1) rotate(0) translate(4 207)">
<title>dependencies</title>
<polygon fill="#ffffff" stroke="transparent" points="-4,4 -4,-207 500,-207 500,4 -4,4"/>
<text text-anchor="start" x="227.0091" y="-42.4" font-family="sans-serif" font-weight="bold" font-size="14.00" fill="#000000">Legend</text>
<polygon fill="#ffffb3" stroke="transparent" points="14,-10 14,-30 34,-30 34,-10 14,-10"/>
<text text-anchor="start" x="37.629" y="-15.4" font-family="sans-serif" font-size="14.00" fill="#000000"> &#160;Declarations</text>
<polygon fill="#8dd3c7" stroke="transparent" points="127,-10 127,-30 147,-30 147,-10 127,-10"/>
<text text-anchor="start" x="150.7251" y="-15.4" font-family="sans-serif" font-size="14.00" fill="#000000"> &#160;Module</text>
<polygon fill="#80b1d3" stroke="transparent" points="213,-10 213,-30 233,-30 233,-10 213,-10"/>
<text text-anchor="start" x="236.7812" y="-15.4" font-family="sans-serif" font-size="14.00" fill="#000000"> &#160;Bootstrap</text>
<polygon fill="#fdb462" stroke="transparent" points="310,-10 310,-30 330,-30 330,-10 310,-10"/>
<text text-anchor="start" x="333.6732" y="-15.4" font-family="sans-serif" font-size="14.00" fill="#000000"> &#160;Providers</text>
<polygon fill="#fb8072" stroke="transparent" points="406,-10 406,-30 426,-30 426,-10 406,-10"/>
<text text-anchor="start" x="429.7258" y="-15.4" font-family="sans-serif" font-size="14.00" fill="#000000"> &#160;Exports</text>
<g id="clust1" class="cluster">
<title>cluster_AppModule</title>
<polygon fill="none" stroke="#000000" stroke-dasharray="1,5" points="129.5,-70 129.5,-195 366.5,-195 366.5,-70 129.5,-70"/>
</g>
<g id="clust3" class="cluster">
<title>cluster_AppModule_imports</title>
<polygon fill="none" stroke="#000000" points="137.5,-78 137.5,-130 358.5,-130 358.5,-78 137.5,-78"/>
</g>
<!-- BooksModule -->
<g id="node1" class="node">
<title>BooksModule</title>
<polygon fill="#8dd3c7" stroke="#000000" points="350.3316,-122 347.3316,-126 326.3316,-126 323.3316,-122 254.6684,-122 254.6684,-86 350.3316,-86 350.3316,-122"/>
<text text-anchor="middle" x="302.5" y="-99.8" font-family="Times,serif" font-size="14.00" fill="#000000">BooksModule</text>
</g>
<!-- AppModule -->
<g id="node3" class="node">
<title>AppModule</title>
<polygon fill="#8dd3c7" stroke="#000000" points="288.1571,-187 285.1571,-191 264.1571,-191 261.1571,-187 204.8429,-187 204.8429,-151 288.1571,-151 288.1571,-187"/>
<text text-anchor="middle" x="246.5" y="-164.8" font-family="Times,serif" font-size="14.00" fill="#000000">AppModule</text>
</g>
<!-- BooksModule&#45;&gt;AppModule -->
<g id="edge1" class="edge">
<title>BooksModule&#45;&gt;AppModule</title>
<path fill="none" stroke="#000000" d="M271.5814,-122.1061C271.5814,-122.1061 271.5814,-140.991 271.5814,-140.991"/>
<polygon fill="#000000" stroke="#000000" points="268.0814,-140.9909 271.5814,-150.991 275.0814,-140.991 268.0814,-140.9909"/>
</g>
<!-- UsersModule -->
<g id="node2" class="node">
<title>UsersModule</title>
<polygon fill="#8dd3c7" stroke="#000000" points="237.4218,-122 234.4218,-126 213.4218,-126 210.4218,-122 145.5782,-122 145.5782,-86 237.4218,-86 237.4218,-122"/>
<text text-anchor="middle" x="191.5" y="-99.8" font-family="Times,serif" font-size="14.00" fill="#000000">UsersModule</text>
</g>
<!-- UsersModule&#45;&gt;AppModule -->
<g id="edge2" class="edge">
<title>UsersModule&#45;&gt;AppModule</title>
<path fill="none" stroke="#000000" d="M220.9411,-122.1061C220.9411,-122.1061 220.9411,-140.991 220.9411,-140.991"/>
<polygon fill="#000000" stroke="#000000" points="217.4412,-140.9909 220.9411,-150.991 224.4412,-140.991 217.4412,-140.9909"/>
</g>
</g>
</svg>
