<?xml version="1.0" encoding="UTF-8" standalone="no"?>
<!DOCTYPE svg PUBLIC "-//W3C//DTD SVG 1.1//EN"
 "http://www.w3.org/Graphics/SVG/1.1/DTD/svg11.dtd">
<!-- Generated by graphviz version 2.40.1 (20161225.0304)
 -->
<!-- Title: dependencies Pages: 1 -->
<svg width="504pt" height="287pt"
 viewBox="0.00 0.00 504.00 287.00" xmlns="http://www.w3.org/2000/svg" xmlns:xlink="http://www.w3.org/1999/xlink">
<g id="graph0" class="graph" transform="scale(1 1) rotate(0) translate(4 283)">
<title>dependencies</title>
<polygon fill="#ffffff" stroke="transparent" points="-4,4 -4,-283 500,-283 500,4 -4,4"/>
<text text-anchor="start" x="227.0091" y="-42.4" font-family="sans-serif" font-weight="bold" font-size="14.00" fill="#000000">Legend</text>
<polygon fill="#ffffb3" stroke="transparent" points="14,-10 14,-30 34,-30 34,-10 14,-10"/>
<text text-anchor="start" x="37.629" y="-15.4" font-family="sans-serif" font-size="14.00" fill="#000000"> &#160;Declarations</text>
<polygon fill="#8dd3c7" stroke="transparent" points="127,-10 127,-30 147,-30 147,-10 127,-10"/>
<text text-anchor="start" x="150.7251" y="-15.4" font-family="sans-serif" font-size="14.00" fill="#000000"> &#160;Module</text>
<polygon fill="#80b1d3" stroke="transparent" points="213,-10 213,-30 233,-30 233,-10 213,-10"/>
<text text-anchor="start" x="236.7812" y="-15.4" font-family="sans-serif" font-size="14.00" fill="#000000"> &#160;Bootstrap</text>
<polygon fill="#fdb462" stroke="transparent" points="310,-10 310,-30 330,-30 330,-10 310,-10"/>
<text text-anchor="start" x="333.6732" y="-15.4" font-family="sans-serif" font-size="14.00" fill="#000000"> &#160;Providers</text>
<polygon fill="#fb8072" stroke="transparent" points="406,-10 406,-30 426,-30 426,-10 406,-10"/>
<text text-anchor="start" x="429.7258" y="-15.4" font-family="sans-serif" font-size="14.00" fill="#000000"> &#160;Exports</text>
<g id="clust1" class="cluster">
<title>cluster_AppModule</title>
<polygon fill="none" stroke="#000000" stroke-dasharray="1,5" points="130,-146 130,-271 367,-271 367,-146 130,-146"/>
</g>
<g id="clust3" class="cluster">
<title>cluster_AppModule_imports</title>
<polygon fill="none" stroke="#000000" points="138,-154 138,-206 359,-206 359,-154 138,-154"/>
</g>
<g id="clust7" class="cluster">
<title>cluster_BooksModule</title>
<polygon fill="none" stroke="#000000" stroke-dasharray="1,5" points="85,-70 85,-138 247,-138 247,-70 85,-70"/>
</g>
<g id="clust12" class="cluster">
<title>cluster_BooksModule_providers</title>
<polygon fill="none" stroke="#000000" points="93,-78 93,-130 239,-130 239,-78 93,-78"/>
</g>
<g id="clust13" class="cluster">
<title>cluster_UsersModule</title>
<polygon fill="none" stroke="#000000" stroke-dasharray="1,5" points="255,-70 255,-138 411,-138 411,-70 255,-70"/>
</g>
<g id="clust18" class="cluster">
<title>cluster_UsersModule_providers</title>
<polygon fill="none" stroke="#000000" points="263,-78 263,-130 403,-130 403,-78 263,-78"/>
</g>
<!-- BooksModule -->
<g id="node1" class="node">
<title>BooksModule</title>
<polygon fill="#8dd3c7" stroke="#000000" points="241.8316,-198 238.8316,-202 217.8316,-202 214.8316,-198 146.1684,-198 146.1684,-162 241.8316,-162 241.8316,-198"/>
<text text-anchor="middle" x="194" y="-175.8" font-family="Times,serif" font-size="14.00" fill="#000000">BooksModule</text>
</g>
<!-- AppModule -->
<g id="node3" class="node">
<title>AppModule</title>
<polygon fill="#8dd3c7" stroke="#000000" points="290.6571,-263 287.6571,-267 266.6571,-267 263.6571,-263 207.3429,-263 207.3429,-227 290.6571,-227 290.6571,-263"/>
<text text-anchor="middle" x="249" y="-240.8" font-family="Times,serif" font-size="14.00" fill="#000000">AppModule</text>
</g>
<!-- BooksModule&#45;&gt;AppModule -->
<g id="edge1" class="edge">
<title>BooksModule&#45;&gt;AppModule</title>
<path fill="none" stroke="#000000" d="M224.4187,-198.1061C224.4187,-198.1061 224.4187,-216.991 224.4187,-216.991"/>
<polygon fill="#000000" stroke="#000000" points="220.9187,-216.9909 224.4187,-226.991 227.9187,-216.991 220.9187,-216.9909"/>
</g>
<!-- UsersModule -->
<g id="node2" class="node">
<title>UsersModule</title>
<polygon fill="#8dd3c7" stroke="#000000" points="350.9218,-198 347.9218,-202 326.9218,-202 323.9218,-198 259.0782,-198 259.0782,-162 350.9218,-162 350.9218,-198"/>
<text text-anchor="middle" x="305" y="-175.8" font-family="Times,serif" font-size="14.00" fill="#000000">UsersModule</text>
</g>
<!-- UsersModule&#45;&gt;AppModule -->
<g id="edge2" class="edge">
<title>UsersModule&#45;&gt;AppModule</title>
<path fill="none" stroke="#000000" d="M275.0589,-198.1061C275.0589,-198.1061 275.0589,-216.991 275.0589,-216.991"/>
<polygon fill="#000000" stroke="#000000" points="271.559,-216.9909 275.0589,-226.991 278.559,-216.991 271.559,-216.9909"/>
</g>
<!-- BooksService -->
<g id="node4" class="node">
<title>BooksService</title>
<ellipse fill="#fdb462" stroke="#000000" cx="166" cy="-104" rx="64.8467" ry="18"/>
<text text-anchor="middle" x="166" y="-99.8" font-family="Times,serif" font-size="14.00" fill="#000000">BooksService</text>
</g>
<!-- BooksService&#45;&gt;BooksModule -->
<g id="edge3" class="edge">
<title>BooksService&#45;&gt;BooksModule</title>
<path fill="none" stroke="#000000" d="M188.5038,-121.2456C188.5038,-121.2456 188.5038,-151.7629 188.5038,-151.7629"/>
<polygon fill="#000000" stroke="#000000" points="185.0039,-151.7628 188.5038,-161.7629 192.0039,-151.7629 185.0039,-151.7628"/>
</g>
<!-- UsersService -->
<g id="node5" class="node">
<title>UsersService</title>
<ellipse fill="#fdb462" stroke="#000000" cx="333" cy="-104" rx="61.9519" ry="18"/>
<text text-anchor="middle" x="333" y="-99.8" font-family="Times,serif" font-size="14.00" fill="#000000">UsersService</text>
</g>
<!-- UsersService&#45;&gt;UsersModule -->
<g id="edge4" class="edge">
<title>UsersService&#45;&gt;UsersModule</title>
<path fill="none" stroke="#000000" d="M310.8672,-120.8669C310.8672,-120.8669 310.8672,-151.8535 310.8672,-151.8535"/>
<polygon fill="#000000" stroke="#000000" points="307.3673,-151.8534 310.8672,-161.8535 314.3673,-151.8535 307.3673,-151.8534"/>
</g>
</g>
</svg>
